<?xml version="1.0" standalone="no"?>
<!DOCTYPE svg PUBLIC "-//W3C//DTD SVG 20010904//EN"
 "http://www.w3.org/TR/2001/REC-SVG-20010904/DTD/svg10.dtd">
<svg version="1.0" xmlns="http://www.w3.org/2000/svg"
 width="502.000000pt" height="502.000000pt" viewBox="0 0 502.000000 502.000000"
 preserveAspectRatio="xMidYMid meet">
<metadata>
Created by potrace 1.14, written by Peter Selinger 2001-2017
</metadata>
<g transform="translate(0.000000,502.000000) scale(0.100000,-0.100000)"
fill="#000000" stroke="none">
<path d="M3387 4984 c-1 -2 -48 -6 -102 -9 -96 -5 -144 -9 -230 -21 -55 -7
-255 -51 -343 -75 -40 -11 -81 -22 -90 -24 -9 -2 -29 -8 -44 -14 -16 -6 -28
-8 -28 -5 0 4 -6 2 -12 -4 -7 -5 -49 -22 -93 -36 -44 -15 -93 -33 -110 -40
-16 -8 -70 -31 -120 -52 -98 -41 -324 -155 -420 -212 -78 -45 -287 -180 -320
-205 -5 -4 -28 -21 -50 -37 -22 -17 -50 -38 -61 -48 -12 -9 -32 -24 -45 -32
-12 -8 -33 -25 -46 -37 -13 -12 -23 -20 -23 -17 0 3 -11 -5 -24 -18 -13 -13
-47 -43 -76 -68 -29 -25 -67 -57 -84 -72 -17 -15 -34 -28 -38 -28 -5 0 -8 -7
-8 -15 0 -8 -3 -15 -7 -15 -11 0 -134 -118 -160 -154 -13 -16 -23 -26 -23 -20
0 5 -4 4 -8 -3 -8 -13 -115 -135 -150 -171 -12 -12 -22 -25 -22 -28 0 -3 -6
-11 -13 -18 -6 -7 -25 -30 -42 -51 -16 -21 -35 -44 -42 -51 -7 -6 -9 -14 -6
-18 4 -3 2 -6 -4 -6 -11 0 -141 -187 -209 -300 -21 -36 -41 -67 -44 -70 -3 -3
-14 -23 -25 -45 -10 -22 -26 -48 -34 -57 -8 -10 -11 -18 -6 -18 4 0 2 -6 -4
-14 -10 -12 -83 -154 -86 -166 0 -3 -6 -15 -13 -27 -7 -13 -9 -23 -5 -23 4 0
3 -4 -2 -8 -11 -8 -77 -160 -78 -179 0 -7 -4 -13 -9 -13 -5 0 -7 -4 -4 -8 3
-5 -2 -21 -10 -36 -21 -42 -21 -1461 1 -1492 8 -12 11 -24 8 -28 -3 -3 0 -6 7
-6 7 0 10 -3 7 -6 -4 -4 2 -19 13 -34 11 -15 17 -29 14 -32 -2 -3 2 -11 11
-18 8 -7 15 -19 15 -26 0 -8 5 -14 10 -14 6 0 10 -5 10 -11 0 -36 184 -261
278 -339 30 -25 67 -57 83 -73 16 -15 29 -25 29 -23 0 3 28 -14 63 -37 34 -23
85 -53 112 -67 28 -14 52 -28 53 -33 2 -4 8 -5 13 -1 5 3 9 0 9 -7 0 -7 3 -10
6 -6 4 3 19 0 34 -8 41 -21 190 -75 190 -68 0 3 6 1 13 -5 7 -6 25 -13 40 -16
15 -2 31 -7 36 -10 5 -3 26 -8 47 -11 22 -3 53 -9 69 -13 17 -4 221 -7 455 -7
451 0 493 3 679 51 111 29 125 33 149 38 36 9 188 58 217 70 17 7 46 19 65 26
19 6 44 16 55 20 302 127 507 235 752 397 54 36 246 175 253 182 3 4 25 22 50
41 24 19 52 42 61 50 9 8 42 38 74 65 32 28 84 75 117 106 32 30 58 54 58 53
0 -3 151 152 182 187 13 14 42 47 65 72 23 26 39 47 36 47 -3 0 4 9 17 20 13
11 20 20 17 20 -3 0 9 15 26 34 48 52 57 64 57 76 0 5 4 10 9 10 7 0 84 104
126 171 6 8 24 37 40 63 17 26 38 57 47 68 10 11 15 25 12 29 -3 5 0 9 5 9 6
0 11 7 11 15 0 8 4 15 8 15 4 0 13 12 19 28 6 15 28 56 48 92 21 36 38 71 39
78 1 8 9 18 17 23 8 5 11 9 7 9 -6 0 23 69 53 122 12 23 12 519 -1 497 -5 -9
-12 -31 -15 -49 -3 -18 -11 -42 -17 -54 -6 -11 -11 -22 -10 -23 2 -3 -1 -11
-30 -93 -12 -36 -21 -67 -19 -69 1 -2 -2 -7 -8 -10 -6 -4 -12 -16 -14 -26 -3
-18 -41 -103 -100 -225 -12 -25 -25 -46 -29 -48 -5 -2 -8 -12 -8 -23 0 -10 -4
-19 -10 -19 -5 0 -10 -5 -10 -10 0 -6 -16 -36 -35 -66 -19 -30 -35 -59 -35
-64 0 -6 -5 -10 -12 -10 -6 0 -9 -3 -5 -6 3 -4 1 -12 -6 -20 -24 -27 -33 -39
-39 -54 -11 -26 -170 -245 -192 -265 -6 -5 -24 -28 -40 -50 -17 -22 -47 -58
-67 -80 -98 -105 -129 -141 -129 -148 0 -5 -4 -5 -10 -2 -5 3 -10 2 -10 -3 0
-19 -288 -294 -375 -358 -25 -18 -39 -29 -82 -64 -10 -9 -36 -29 -58 -45 -22
-17 -45 -34 -51 -40 -6 -5 -57 -41 -115 -80 -57 -38 -110 -76 -118 -83 -8 -8
-24 -18 -35 -23 -12 -5 -37 -19 -56 -31 -32 -19 -95 -55 -145 -82 -11 -6 -22
-14 -25 -17 -3 -3 -59 -32 -125 -65 -66 -32 -123 -63 -127 -69 -4 -5 -8 -7 -8
-2 0 4 -19 -3 -42 -15 -24 -12 -45 -22 -48 -23 -3 0 -18 -6 -35 -12 -54 -22
-90 -36 -95 -38 -3 -1 -23 -9 -45 -19 -22 -9 -48 -18 -57 -19 -10 -1 -18 -6
-18 -11 0 -5 -3 -7 -6 -3 -3 3 -30 -3 -60 -14 -29 -11 -62 -21 -74 -22 -11 -1
-20 -6 -20 -11 0 -5 -3 -7 -6 -3 -3 3 -24 -1 -47 -9 -22 -8 -52 -16 -66 -19
-14 -3 -37 -7 -51 -10 -14 -3 -36 -8 -50 -11 -33 -6 -69 -13 -100 -20 -159
-33 -573 -39 -740 -9 -14 2 -36 6 -50 9 -14 3 -38 8 -55 12 -16 3 -43 9 -60
14 -16 5 -50 14 -75 21 -25 7 -54 17 -65 23 -11 6 -22 11 -25 11 -25 6 -206
93 -225 107 -5 5 -36 26 -68 47 -32 21 -74 52 -93 70 -20 17 -37 31 -39 31 -7
0 -121 119 -159 166 -63 79 -79 102 -104 147 -12 22 -26 44 -30 47 -25 17
-147 334 -136 352 3 4 2 8 -3 8 -4 0 -9 10 -10 23 -2 27 -11 92 -13 92 -3 0
-10 43 -17 100 -14 119 -5 467 12 495 2 4 8 29 11 56 10 74 12 89 14 89 1 0 3
9 5 19 2 11 12 52 21 90 10 39 17 74 16 78 -1 5 3 8 9 8 5 0 8 4 4 10 -3 5 -1
17 4 27 6 10 19 47 31 83 11 36 27 79 35 95 7 17 17 42 20 58 4 15 11 27 16
27 5 0 9 9 9 20 0 11 4 20 10 20 5 0 9 3 8 8 -3 14 14 62 23 62 5 0 9 5 9 11
0 19 122 252 146 280 8 8 14 19 14 23 0 9 118 186 143 214 11 12 17 22 14 22
-7 0 13 26 61 78 12 14 22 28 22 32 0 3 8 15 17 26 16 17 41 46 143 169 31 37
289 296 350 351 25 22 72 62 105 88 33 26 65 53 70 60 11 12 131 102 210 157
27 19 56 40 63 47 7 6 17 12 22 12 5 0 15 6 22 13 7 7 36 26 63 42 28 16 55
34 61 40 6 5 37 24 70 40 32 17 62 35 66 40 4 6 11 10 15 10 4 1 37 16 73 35
97 51 144 73 152 72 3 -1 12 5 18 13 7 8 23 15 36 15 13 0 24 5 24 11 0 6 7 9
15 5 8 -3 15 -2 15 3 0 4 33 20 73 35 39 15 81 31 92 36 51 22 136 49 200 65
39 10 75 21 80 25 6 5 24 10 40 13 17 3 41 8 55 11 14 3 36 8 50 10 14 3 34 7
45 9 32 7 109 21 128 23 9 1 18 2 20 4 10 8 103 19 203 25 54 3 101 8 105 11
4 2 10 0 14 -5 3 -6 15 -7 28 -2 13 5 30 5 39 0 11 -6 19 -5 23 1 4 6 11 8 16
4 6 -3 45 -8 87 -10 93 -5 149 -10 182 -18 65 -15 136 -30 150 -31 8 -1 22 -4
30 -7 17 -6 102 -32 110 -34 3 0 19 -6 35 -13 17 -7 59 -24 95 -38 36 -14 67
-29 70 -32 3 -3 35 -21 73 -40 37 -19 67 -38 67 -43 0 -4 6 -8 13 -8 7 0 23
-9 35 -20 12 -11 24 -20 27 -20 5 0 32 -22 103 -85 65 -57 83 -76 122 -125 19
-24 43 -51 52 -61 10 -10 29 -38 44 -61 15 -24 30 -45 33 -48 19 -16 108 -198
136 -279 l24 -66 0 213 c1 116 -3 212 -8 212 -5 0 -14 12 -20 28 -6 15 -24 41
-39 59 -15 17 -38 47 -52 65 -40 53 -171 182 -215 211 -22 15 -35 27 -30 28 6
0 3 3 -5 7 -8 4 -46 28 -85 53 -125 82 -336 180 -367 171 -5 -1 -8 3 -8 8 0 6
-10 10 -23 10 -13 0 -27 3 -31 7 -3 4 -17 9 -29 11 -26 4 -37 7 -57 15 -8 3
-28 8 -45 11 -16 4 -40 8 -52 11 -63 14 -151 25 -248 31 -101 6 -314 12 -318
8z"/>
<path d="M2515 4361 c-6 -10 17 -74 30 -83 6 -4 7 -8 3 -8 -4 0 -1 -19 7 -41
8 -23 15 -45 15 -49 0 -4 -19 -20 -42 -36 -24 -16 -55 -38 -69 -49 -14 -11
-38 -29 -53 -40 -15 -11 -48 -35 -71 -52 -24 -18 -48 -33 -54 -33 -5 0 -11 -3
-13 -8 -4 -9 -143 -112 -152 -112 -3 0 -15 -8 -25 -17 -31 -28 -44 -38 -91
-69 -25 -16 -52 -36 -62 -44 -35 -32 -48 -41 -48 -35 0 4 -6 0 -13 -7 -7 -7
-30 -24 -50 -38 -20 -14 -37 -28 -37 -32 0 -5 -6 -8 -12 -8 -7 0 -25 -10 -39
-23 -27 -22 -78 -59 -174 -126 -27 -19 -51 -38 -53 -43 -2 -4 -10 -8 -18 -8
-8 0 -14 -4 -14 -8 0 -4 -12 -15 -27 -24 -16 -9 -37 -24 -48 -33 -20 -16 -143
-103 -179 -127 -10 -7 -31 -22 -45 -34 -14 -11 -57 -43 -96 -69 -38 -27 -76
-55 -83 -62 -7 -7 -17 -13 -21 -13 -4 0 -16 -8 -27 -18 -10 -10 -41 -33 -69
-52 -27 -18 -52 -37 -55 -40 -3 -3 -26 -21 -52 -38 -26 -18 -50 -37 -53 -42
-7 -12 15 -56 48 -94 14 -17 24 -33 21 -38 -3 -4 0 -8 5 -8 6 0 11 -7 11 -15
0 -22 32 -18 60 8 57 50 208 146 213 134 2 -7 3 -408 2 -892 -1 -484 2 -889 6
-900 6 -18 15 -20 100 -19 115 2 108 0 108 22 0 143 -1 591 -3 1201 l-3 754
81 59 c45 32 89 65 99 73 9 8 20 15 23 15 5 0 115 81 124 91 3 3 15 12 28 18
13 7 31 19 40 26 9 8 64 48 122 89 58 41 110 79 116 84 6 5 29 21 52 36 23 14
42 31 42 36 0 6 5 10 11 10 11 0 320 218 331 235 4 5 8 6 8 2 0 -4 10 2 22 13
12 11 47 37 78 58 30 20 57 39 60 42 8 9 110 80 114 80 5 0 13 -19 61 -155 23
-66 57 -160 74 -210 18 -49 36 -99 40 -110 5 -11 19 -49 31 -85 12 -36 25 -74
30 -85 10 -28 37 -105 72 -205 16 -47 32 -92 35 -100 3 -8 7 -17 8 -20 1 -3 4
-12 7 -20 3 -8 16 -44 28 -80 12 -36 44 -125 72 -199 27 -73 50 -142 51 -152
1 -10 5 -19 9 -19 4 0 8 -7 8 -15 0 -16 -25 -21 -34 -7 -10 17 -114 32 -236
34 -69 1 -130 -1 -136 -4 -11 -7 -12 -577 -1 -595 7 -11 258 -11 312 1 52 12
116 49 143 84 15 18 32 39 38 45 12 13 13 17 21 47 8 30 24 20 40 -26 7 -21
16 -46 20 -54 3 -8 7 -17 8 -20 5 -20 39 -117 44 -125 3 -5 6 -14 6 -20 1 -5
7 -23 13 -39 7 -16 14 -36 15 -45 2 -9 8 -25 13 -36 6 -11 17 -40 24 -65 7
-25 17 -49 22 -54 4 -6 8 -18 8 -28 0 -10 4 -26 10 -36 5 -9 19 -46 31 -82 12
-36 26 -71 31 -77 6 -7 8 -13 4 -13 -3 0 4 -24 15 -52 12 -29 22 -60 24 -68 7
-33 58 -176 66 -186 5 -6 6 -14 2 -17 -3 -4 -2 -7 4 -7 7 0 9 24 7 68 -3 37
-6 99 -9 137 -2 39 -7 124 -9 190 -3 66 -8 145 -10 175 -7 67 -18 260 -17 278
1 6 1 18 2 25 0 6 -2 35 -5 62 -3 28 -8 106 -11 175 -2 69 -4 125 -5 125 0 0
-2 42 -3 92 -1 51 -4 93 -7 93 -3 0 -5 51 -5 113 1 61 -1 116 -4 121 -2 5 -5
50 -7 100 -5 168 -14 370 -19 443 l-5 71 32 11 c33 10 150 39 198 48 14 2 43
9 65 15 22 5 51 11 65 13 14 2 26 4 28 5 1 2 7 4 12 5 6 1 12 4 15 5 7 3 13 5
65 15 25 5 47 9 50 10 3 1 17 5 31 9 14 4 34 9 45 11 10 2 19 4 19 5 0 1 13 3
29 5 16 2 36 7 45 11 9 4 23 8 31 9 58 8 141 29 146 36 5 8 -12 48 -25 59 -3
3 -28 50 -56 105 -54 110 -70 128 -97 114 -10 -5 -18 -8 -18 -5 0 2 -28 -2
-62 -11 -35 -8 -74 -16 -88 -18 -30 -5 -66 -12 -88 -19 -9 -3 -35 -8 -57 -11
-23 -3 -52 -8 -65 -11 -68 -14 -222 -42 -274 -49 l-46 -7 -1 279 c0 153 -1
305 -2 338 l-2 60 -522 2 c-288 1 -525 -2 -528 -6z m516 -1926 c19 -3 50 -14
69 -24 37 -19 84 -77 74 -92 -3 -5 0 -9 7 -9 8 0 10 -24 7 -87 -5 -114 -28
-154 -108 -189 -44 -19 -206 -28 -217 -12 -11 18 -11 62 0 76 5 6 6 12 1 12
-7 0 -10 252 -5 323 1 5 26 7 56 6 30 -1 58 0 61 4 4 4 10 5 14 2 4 -2 22 -7
41 -10z"/>
<path d="M2336 2543 c-2 -3 -15 -6 -28 -8 -84 -13 -127 -40 -200 -123 -41 -47
-72 -175 -57 -237 1 -5 3 -14 4 -20 2 -5 4 -13 5 -17 1 -5 3 -11 4 -15 13 -56
101 -151 172 -183 52 -24 191 -36 223 -20 9 5 36 18 61 29 132 62 197 202 166
359 -14 74 -94 166 -176 203 -25 11 -52 24 -61 29 -9 4 -22 4 -29 0 -8 -5 -18
-6 -23 -3 -11 7 -55 11 -61 6z m115 -103 c48 -13 110 -78 131 -137 19 -57 16
-129 -9 -176 -9 -17 -17 -34 -17 -37 1 -6 -39 -44 -49 -47 -4 -2 -18 -10 -31
-18 -13 -9 -40 -17 -60 -19 -20 -2 -39 -6 -42 -9 -6 -6 -83 16 -115 33 -101
54 -140 192 -85 304 26 53 94 108 137 111 10 1 21 4 24 7 7 7 69 0 116 -12z"/>
<path d="M1884 2422 c1 -65 -3 -117 -9 -122 -16 -12 -283 -11 -292 2 -3 7 -6
61 -6 120 l1 109 -51 -3 -52 -3 0 -300 c0 -331 -3 -316 64 -306 l36 6 2 115
c1 63 2 125 2 138 1 21 4 23 61 20 33 -2 60 0 60 5 0 4 5 5 12 1 12 -8 133 -8
146 -1 19 12 27 -28 27 -145 0 -137 1 -139 54 -142 47 -3 48 4 50 318 1 276 0
296 -16 297 -10 0 -34 1 -54 2 l-35 2 0 -113z"/>
<path d="M1980 1530 c-10 -18 -7 -73 5 -102 6 -16 43 -17 471 -17 293 0 466 4
470 10 9 15 11 97 3 111 -7 10 -111 13 -474 14 -427 0 -467 -1 -475 -16z"/>
<path d="M1788 1315 c-2 -16 -1 -46 2 -65 5 -33 7 -35 40 -31 70 7 192 6 197
-2 2 -4 9 -5 14 -1 15 9 89 10 89 2 0 -4 6 -5 13 -2 24 9 108 11 113 2 3 -4
10 -6 15 -2 9 5 83 8 104 4 6 -1 15 -1 20 0 29 7 255 4 255 -3 0 -5 5 -5 11
-1 13 8 144 8 158 0 5 -3 11 -2 13 3 2 5 24 6 51 1 26 -4 49 -4 52 -1 2 4 21
5 42 3 49 -4 145 -4 149 1 10 9 10 108 0 115 -6 3 -309 7 -673 7 l-661 0 -4
-30z"/>
<path d="M1483 1157 c-3 -5 -6 -33 -7 -64 -1 -40 3 -57 14 -62 20 -10 1897 -8
1906 2 5 4 9 35 10 67 1 49 -2 60 -15 61 -105 6 -1904 2 -1908 -4z"/>
</g>
</svg>
